# xmcd
#
# Track frame offsets:
# 150
# 12430
# 21530
# 36285
# 50837
# 65677
# 78660
# 90135
# 99220
# 112112
# 126762
# 146367
# 160457
# 177747
# 188335
# 198902
# 213017
# 230002
# 242635
# 255757
# 268047
# 279527
#
# Disc length: 3867 seconds
#
# Revision: 0
# Processed by: cddbd v1.5.2PL0 Copyright (c) Steve Scherf et al.
# Submitted via: Audion 3.0.2 (http://www.panic.com/audion/)
#
DISCID=340f1916
DTITLE=Mer années 69 à 83 CD 1 - Jean-Marie Vivier
DYEAR=1900
DGENRE=
TTITLE0=La journée des amants
TTITLE1=Odeur des myrtilles
TTITLE2=le phare
TTITLE3=l'oiseau mort
TTITLE4=La manic
TTITLE5=ca t'va
TTITLE6=j'ai pour toi un lac
TTITLE7=vierge marie
TTITLE8=souviens-toi marie
TTITLE9=a la vie
TTITLE10=ce soir c'est Noel
TTITLE11=le mort du théatre
TTITLE12=chez larry
TTITLE13=supplique à G. Brassens pour qu'il n'entre pas à l'Académie
TTITLE14=faut-il tuer les oiseaux qui passent
TTITLE15=Chanson mathématique
TTITLE16=L'ile lointaine
TTITLE17=parlez parlez
TTITLE18=chanson malade
TTITLE19=Une histoire d'amour un piano mécanique un fleuve
TTITLE20=la Mariette
TTITLE21=la Mémoire
EXTD=
EXTT0=
EXTT1=
EXTT2=
EXTT3=
EXTT4=
EXTT5=
EXTT6=
EXTT7=
EXTT8=
EXTT9=
EXTT10=
EXTT11=
EXTT12=
EXTT13=
EXTT14=
EXTT15=
EXTT16=
EXTT17=
EXTT18=
EXTT19=
EXTT20=
EXTT21=
PLAYORDER=
